<svg width="347" height="219" viewBox="0 0 347 219" fill="none" xmlns="http://www.w3.org/2000/svg">
<path d="M266.655 76.902C262.925 76.5427 259.168 76.5427 255.438 76.902C251.338 58.2227 240.978 41.5055 226.076 29.5197C211.174 17.5342 192.624 11 173.5 11C154.376 11 135.826 17.5342 120.924 29.5197C106.022 41.5055 95.663 58.2227 91.5628 76.902C87.832 76.5427 84.0757 76.5427 80.345 76.902C71.443 76.3575 62.524 77.6408 54.1365 80.6728C45.749 83.7048 38.071 88.4212 31.575 94.532C25.079 100.643 19.9023 108.019 16.3639 116.205C12.8254 124.392 11 133.216 11 142.135C11 151.053 12.8254 159.877 16.3639 168.064C19.9023 176.251 25.079 183.627 31.575 189.737C38.071 195.847 45.749 200.565 54.1365 203.597C62.524 206.63 71.443 207.912 80.345 207.367H266.655C275.558 207.912 284.475 206.63 292.862 203.597C301.25 200.565 308.93 195.847 315.425 189.737C321.92 183.627 327.098 176.251 330.635 168.064C334.175 159.877 336 151.053 336 142.135C336 133.216 334.175 124.392 330.635 116.205C327.098 108.019 321.92 100.643 315.425 94.532C308.93 88.4212 301.25 83.7048 292.862 80.6728C284.475 77.6408 275.558 76.3575 266.655 76.902Z" stroke="#353535" stroke-width="22" stroke-linecap="round" stroke-linejoin="round"/>
</svg>
