<svg width="215" height="215" viewBox="0 0 215 215" fill="none" xmlns="http://www.w3.org/2000/svg">
<g clip-path="url(#clip0_4_72)">
<path d="M115.179 7.67847C122.306 7.67847 129.142 10.5099 134.182 15.55C139.222 20.59 142.054 27.4258 142.054 34.5535C142.054 41.6812 139.222 48.5169 134.182 53.557C129.142 58.597 122.306 61.4285 115.179 61.4285H7.67871" stroke="#353535" stroke-width="7.14286" stroke-linecap="round" stroke-linejoin="round"/>
<path d="M180.447 161.25C187.574 161.25 194.41 158.419 199.45 153.379C204.49 148.338 207.322 141.503 207.322 134.375C207.322 127.247 204.49 120.412 199.45 115.372C194.41 110.331 187.574 107.5 180.447 107.5H30.7144" stroke="#353535" stroke-width="7.14286" stroke-linecap="round" stroke-linejoin="round"/>
<path d="M115.304 214.75C122.431 214.75 129.267 211.919 134.307 206.878C139.347 201.838 142.179 195.003 142.179 187.875C142.179 180.747 139.347 173.912 134.307 168.871C129.267 163.831 122.431 161 115.304 161H27" stroke="#353535" stroke-width="7.14286" stroke-linecap="round" stroke-linejoin="round"/>
</g>
<defs>
<clipPath id="clip0_4_72">
<rect width="215" height="215" fill="white"/>
</clipPath>
</defs>
</svg>
